<?xml version="1.0" encoding="utf-8"?>
<!-- Generator: Adobe Illustrator 19.2.1, SVG Export Plug-In . SVG Version: 6.00 Build 0)  -->
<svg version="1.1" id="layer" xmlns="http://www.w3.org/2000/svg" xmlns:xlink="http://www.w3.org/1999/xlink" x="0px" y="0px"
	 viewBox="0 0 652 652" style="enable-background:new 0 0 652 652;" xml:space="preserve">
<style type="text/css">
	.st0{fill:#B0163C;}
	.st1{fill:#8D7B99;}
	.st2{fill:#020203;}
</style>
<g>
	<path class="st0" d="M370,299c-4.6-9.7-16.7-13.6-27-8.6c-10.3,5-17.8,18.3-13.2,28c4.6,9.7,19.5,12.3,29.8,7.3
		C370,320.7,374.6,308.7,370,299"/>
	<path class="st0" d="M414.9,277.4c-12.1-25.6-37.4-40.6-63.7-40.6c-10.2,0-20.6,2.3-30.3,7c-9.8,4.7-18,11.4-24.4,19.4l24.5,20.1
		c3.5-4.4,8-8.1,13.5-10.7c5.5-2.6,11.1-3.8,16.7-3.8c14.6,0,28.6,8.3,35.2,22.5c2.6,5.5,3.8,11.2,3.8,16.9
		c0,14.7-8.2,28.9-22.2,35.6c-5.4,2.6-10.9,3.8-16.4,3.9v31.9c10.1-0.1,20.3-2.3,30-7c25.4-12.2,40.2-37.8,40.2-64.4
		C421.8,297.8,419.6,287.3,414.9,277.4"/>
	<path class="st1" d="M288.3,227.2c-4.8-10.1-20.3-12.7-31-7.6c-10.7,5.2-15.5,17.6-10.8,27.7c4.8,10.1,17.3,14.1,28.1,9
		C285.3,251.2,293.1,237.4,288.3,227.2"/>
	<path class="st1" d="M296.5,263.1c-3.5,4.4-8,8.1-13.5,10.7c-5.5,2.6-11.1,3.9-16.8,3.9c-14.6,0-28.5-8.3-35.2-22.5
		c-2.6-5.5-3.8-11.2-3.8-16.9c0-14.7,8.2-28.9,22.2-35.6c5.4-2.6,10.9-3.8,16.5-3.9l0-31.9c-10.1,0.1-20.4,2.3-30,6.9
		c-25.4,12.2-40.2,37.8-40.2,64.4c0,10.3,2.2,20.8,6.9,30.6c12.1,25.6,37.4,40.6,63.7,40.6h0c10.2,0,20.6-2.2,30.4-6.9
		c9.7-4.7,18-11.4,24.4-19.4L296.5,263.1z"/>
	<path class="st2" d="M82.8,442.1c0-5.3,1-13,8.1-13c7.2,0,8.2,7.7,8.2,13H82.8z M91,426.6c-9.1,0-16.1,8.4-16.1,18.3
		c0,9.8,7,18.3,16.1,18.3c7.8,0,11.9-3.2,15.2-8.1l-1.8-1.2c-2.8,3.8-6.1,6.8-11,6.8c-6.3,0-10.6-5.8-10.6-16h23.7
		C106.5,432.7,99.6,426.6,91,426.6"/>
	<path class="st2" d="M138.6,426.6c-5.1,0-8.6,2.8-11.2,7.4h-0.1v-7l-11.5,0.4v2.5c3.9,0,5.2,0.7,5.2,3.1l0,29.2h6.9l0-20.2
		c0-5.6,3.5-12.5,8.9-12.5c2.7,0,5.9,1.5,5.9,8v24.7h6.9l0-22.1C149.5,429.3,143.8,426.6,138.6,426.6"/>
	<path class="st2" d="M183.2,452.6c0,5.9-2.5,8-5.3,8c-2.1,0-4-0.7-4-3.9V430H184v-2.5h-10.2v-11.5h-2.6c-1.9,9-2.8,10.9-9.6,11.5
		v2.5h5.4v24.1c0,7.3,4,9,9.1,9c7.2,0,9.2-4.1,9.2-10.8v-1.2h-2.1V452.6z"/>
	<path class="st2" d="M214.8,426.6c-6.1,0-8.5,4.6-10,10.5h-0.1V427l-11.6,0.4v2.5c4,0,5.3,0.7,5.3,3.1v29.2h6.9c0,0,0-3.8,0-10
		c0-14.1,3.7-23.2,8.6-23.2c0.5,0,0.7,0.1,1,0.1c-1,0.7-1.5,1.7-1.5,2.9c0,2.1,1.2,3.5,3.6,3.5c2.3,0,3.9-1.9,3.9-3.9
		C220.6,429.5,218.9,426.6,214.8,426.6"/>
	<path class="st2" d="M249.6,449.4c0,6.3-4,10.7-8.6,10.7c-3.4,0-5.1-2.4-5.1-5.7c0-6.4,8.6-10.1,13.8-11.4V449.4z M258.8,458.9
		c-1.4,0-2.3-0.5-2.3-4.1v-17.9c0-7.9-4.7-10.2-14.2-10.2c-6.7,0-12.4,3.8-12.4,8.3c0,2.2,1.7,4.3,4.2,4.3c2.5,0,4.2-2.1,4.2-4.3
		c0-2.1-1.2-3.5-3.1-3.9c2.2-1.4,4.3-1.8,6.9-1.8c2.8,0,7.6,0.9,7.6,4.6v6.9c-6.2,2.1-21.7,5.6-21.7,14.1c0,5.8,5.1,8.5,10.3,8.5
		c5.4,0,9.7-1.6,11.8-7.1h0.1c0.6,3.8,1.6,6.7,5.9,6.7c5.2,0,7.5-4.2,7.5-9h-2C261.6,455.5,261.1,458.9,258.8,458.9"/>
	<path class="st2" d="M303.1,442.1c0-5.3,1-13,8.1-13c7.2,0,8.2,7.7,8.2,13H303.1z M311.3,426.6c-9.1,0-16.1,8.4-16.1,18.3
		c0,9.8,7,18.3,16.1,18.3c7.8,0,11.9-3.2,15.2-8.1l-1.8-1.2c-2.8,3.8-6.1,6.8-11,6.8c-6.3,0-10.6-5.8-10.6-16h23.7
		C326.8,432.7,319.9,426.6,311.3,426.6"/>
	<path class="st2" d="M406.4,427.5v2.5c4.4,0,5.7,0.7,5.7,3.1v16.6c-0.7,4.9-3.3,10.5-9.3,10.5c-3.9,0-5.5-3-5.5-7.1v-25.6h-12.1
		v2.5c3.9,0,5.2,0.7,5.2,3.1v16.7c0,8.7,4.3,13.3,10.9,13.3c5.1,0,8.6-2.8,11.2-7.4h0.1v6.5h6.3l0-34.7H406.4z"/>
	<path class="st2" d="M345.5,422c0-5.9,4.2-9,9.7-9c8.5,0,12.7,8.2,14.6,15.5h2v-17.2h-2.5c-0.2,0.7-1.2,3.4-2.3,3.4
		c-1.8,0-5.3-4.3-11.9-4.3c-7.8,0-15.7,5.2-15.7,14.1c0,19.7,29.3,9.8,29.3,26.5c0,6-5.4,9.7-11.8,9.7c-10,0-14.6-5.8-16.2-13.6
		h-2.2c1.6,9.6,7.4,16.1,18.7,16.1c9.7-0.1,17.5-6.3,17.5-16.5C374.8,428.5,345.5,436.1,345.5,422"/>
	<path class="st2" d="M451.6,460.6c-2.4,0-8.4-2.3-8.4-13.6v-2c0-9.3,3.4-16,8.9-16c6.3,0,8.9,6.7,8.9,16
		C461.1,456.1,458.4,460.6,451.6,460.6 M453.1,426.6c-5.9,0-8.5,3.6-10.3,7.7h-0.1v-6.8l-11.9,0.5v2.5c4.2,0,5.6,0.7,5.6,3.1v44h6.9
		l0-20.4h0.1c2.2,4.2,4.6,6,9.8,6c8.8,0,15.4-8.9,15.4-18.7C468.6,435.3,461.7,426.6,453.1,426.6"/>
	<path class="st2" d="M505.4,415.2c1.3-0.8,2.2-2,2.2-3c0-1.4-0.7-2.4-2.5-2.4c-1.4,0-2.3,0.7-3.2,1.7l-10.8,11h2.9L505.4,415.2z"/>
	<path class="st2" d="M487.9,442.1c0-5.3,1-13,8.1-13c7.2,0,8.2,7.7,8.2,13H487.9z M496.1,426.6c-9.1,0-16.1,8.4-16.1,18.3
		c0,9.8,7,18.3,16.1,18.3c7.8,0,11.9-3.2,15.2-8.1l-1.8-1.2c-2.8,3.8-6.1,6.8-11,6.8c-6.3,0-10.6-5.8-10.6-16h23.7
		C511.6,432.7,504.7,426.6,496.1,426.6"/>
	<path class="st2" d="M521.1,417c4.2,0,5.6,0.7,5.6,3.1l0,42.2h6.9l0-48.3l-12.4,0.4V417z"/>
	<path class="st2" d="M619,453.8c-2.6,3.9-5.9,6.8-11.1,6.8c-7.8,0-11.2-7.3-11.2-16.6c0-9.4,4.5-14.9,10.5-14.9
		c8.1,0,4.1,8.9,9.2,8.9c2.1,0,3.9-1.5,3.9-3.7c0-4.9-6.9-7.8-12.5-7.8c-9.8,0-19.1,7.7-19.1,18.3s7.7,18.3,17.7,18.3
		c6.8,0,11.3-3.3,14.4-8.4L619,453.8z"/>
	<path class="st2" d="M269.7,417c4.2,0,5.6,0.7,5.6,3.1l0,42.2h6.8l0-48.3l-12.4,0.4V417z"/>
	<path class="st2" d="M554.2,442.1c0-5.3,1-13,8.1-13c7.2,0,8.2,7.7,8.2,13H554.2z M562.4,426.6c-9.1,0-16.1,8.4-16.1,18.3
		c0,9.8,7,18.3,16.1,18.3c7.8,0,11.9-3.2,15.2-8.1l-1.7-1.2c-2.8,3.8-6.1,6.8-11,6.8c-6.3,0-10.6-5.8-10.6-16h23.7
		C577.9,432.7,570.9,426.6,562.4,426.6"/>
	<path class="st2" d="M44.5,460.6c-6.4,0-15.2-6.1-15.2-23.8c0-16.1,4.8-23.8,15.4-23.8c9.4,0,12.8,8.1,15.1,16.3h2v-17.5H60
		c-0.4,1.3-1.7,2.8-3,2.8c-1.2,0-6.5-4.1-13-4.1c-13.3,0-23.2,12.6-23.2,26.4c0,13.7,9.8,26.3,22.3,26.3c12.2,0,18-6.3,19.7-16.1
		h-2.2C59,454.9,54.5,460.6,44.5,460.6"/>
</g>
</svg>
