<?xml version="1.0" encoding="utf-8"?>
<!-- Generator: Adobe Illustrator 16.0.3, SVG Export Plug-In . SVG Version: 6.00 Build 0)  -->
<!DOCTYPE svg PUBLIC "-//W3C//DTD SVG 1.1//EN" "http://www.w3.org/Graphics/SVG/1.1/DTD/svg11.dtd">
<svg version="1.1" id="Calque_1" xmlns="http://www.w3.org/2000/svg" xmlns:xlink="http://www.w3.org/1999/xlink" x="0px" y="0px"
	 width="255.118px" height="255.118px" viewBox="0 0 255.118 255.118" enable-background="new 0 0 255.118 255.118"
	 xml:space="preserve">
<g>
	
		<radialGradient id="SVGID_1_" cx="522.1479" cy="104.9165" r="212.8092" gradientTransform="matrix(0.6 0 0 0.6 -162.8747 41.6721)" gradientUnits="userSpaceOnUse">
		<stop  offset="0" style="stop-color:#456587"/>
		<stop  offset="0.2555" style="stop-color:#2C4F73"/>
		<stop  offset="0.5931" style="stop-color:#0C395D"/>
		<stop  offset="0.8524" style="stop-color:#002D50"/>
		<stop  offset="1" style="stop-color:#00294B"/>
	</radialGradient>
	<path fill="url(#SVGID_1_)" d="M123.116,27.265c-1.819-0.113-3.626-0.17-5.422-0.172C92.657,27.064,69.978,37.727,50.216,58.85
		C32.25,78.053,26.211,93.507,26.264,112.168c0.028,9.982,1.8,20.883,4.423,33.766c4.931,24.226,19.313,47.614,39.455,64.173
		c15.423,12.675,32.624,19.149,50.75,19.27c9.395,0.063,19.034-1.582,28.808-4.955c31.553-10.892,61.734-42.072,73.4-75.825
		c3.691-10.683,5.484-21.076,5.445-30.971c-0.093-24.176-11.139-45.368-32.24-60.519C170.706,38.72,146.083,28.682,123.116,27.265z"
		/>
	<g>
		<path fill="#FFFFFF" d="M87.09,128.56h-6.938l-0.007,0.197c-0.056,1.347-0.857,13.149-11.417,13.149
			c-9.438,0-14.229-8.458-14.237-25.142c0.009-16.684,4.799-25.143,14.237-25.143c10.744,0,11.394,12.613,11.417,13.148l0.007,0.195
			h6.938c0.641,0,1.264-0.263,1.71-0.72c0.427-0.44,0.648-1.008,0.618-1.6c-0.144-3.274-1.823-19.602-20.788-19.602
			c-15.327,0-23.427,11.647-23.427,33.686c0,22.082,8.1,33.755,23.427,33.755c18.254,0,20.523-14.913,20.786-19.484
			c0.044-0.63-0.172-1.236-0.613-1.702C88.358,128.828,87.731,128.56,87.09,128.56z"/>
		<path fill="#62C4DD" d="M194.899,112.755l0.002,0.002l-5.977-2.606c-5.747-2.525-7.785-4.98-7.785-9.389
			c0-5.747,4.205-9.61,10.463-9.61c3.698,0,6.734,0.758,10.439,4.532l0.202,0.207l3.189-2.917c1.847-1.714,1.313-3.259,0.541-4.251
			c-3.11-3.67-8.104-5.685-14.067-5.685c-11.501,0-19.848,7.502-19.848,17.839c0,10.165,6.404,14.414,13.324,17.49l6.098,2.722
			c6.129,2.748,9.046,5.091,9.046,10.985c0,8.042-7.266,10.186-11.559,10.186c-3.693,0-7.806-0.789-12.857-6.514l-0.198-0.225
			l-3.321,2.917c-1.71,1.503-1.724,2.793-0.059,4.935c4.574,5.879,11.278,7.112,16.099,7.112c10.423,0,20.977-6.401,20.977-18.637
			C209.608,121.257,203.728,116.556,194.899,112.755z"/>
		<path fill="#62C4DD" d="M135.975,102.339c0-10.412-8.436-19.232-18.852-19.232c-4.898,0-9.358,1.868-12.711,4.931v-3.579H98.14
			c-1.889,0-2.61,1.233-2.61,2.65v60.755c0,1.71,1.043,2.623,2.581,2.623h6.273c0,0,0-47.777,0-47.779
			c0-6.277,5.092-11.366,11.368-11.366c6.275,0,11.366,5.089,11.366,11.366c0,0.002,0,47.788,0,47.788h6.233
			c1.728,0,2.624-0.959,2.624-2.613C135.975,147.883,135.975,102.399,135.975,102.339z"/>
		<path fill="#FFFFFF" d="M171.943,87.649c0.327-0.407,0.529-0.917,0.529-1.478c0-1.045-0.68-1.923-1.619-2.242
			c-1.813-0.608-3.746-0.941-5.756-0.941c-4.899,0-9.359,1.868-12.711,4.931V84.34h-6.272c-1.891,0-2.613,1.233-2.613,2.651v60.755
			c0,1.71,1.048,2.622,2.586,2.622h6.271c0,0,0-47.776,0-47.778c0-6.277,5.09-11.367,11.369-11.367c1.645,0,3.203,0.357,4.613,0.985
			l3.624-4.546L171.943,87.649z"/>
	</g>
</g>
</svg>
