<?xml version="1.0" encoding="utf-8"?>
<!-- Generator: Adobe Illustrator 16.0.3, SVG Export Plug-In . SVG Version: 6.00 Build 0)  -->
<!DOCTYPE svg PUBLIC "-//W3C//DTD SVG 1.1//EN" "http://www.w3.org/Graphics/SVG/1.1/DTD/svg11.dtd">
<svg version="1.1" id="layer" xmlns="http://www.w3.org/2000/svg" xmlns:xlink="http://www.w3.org/1999/xlink" x="0px" y="0px"
	 width="2383.937px" height="850.394px" viewBox="-0.012 1259.99 2383.937 850.394"
	 enable-background="new -0.012 1259.99 2383.937 850.394" xml:space="preserve">
<g>
	<circle fill="#62003C" cx="2209.898" cy="1356.124" r="61.792"/>
	<circle fill="#62003C" cx="2075.71" cy="1473.492" r="38.026"/>
	<path fill="#62003C" d="M532.73,1934.192c0-31.444-21.207-50.092-56.674-50.092h-68.739v150.276h32.907v-47.533h26.326
		l32.176,47.533h38.025l-36.563-53.383C519.933,1972.95,532.73,1958.69,532.73,1934.192z M499.458,1935.655
		c0,12.797-9.507,21.207-25.595,21.207h-32.907v-43.146h32.907C489.219,1913.717,499.458,1921.395,499.458,1935.655z
		 M726.883,1944.064c-26.326-6.946-32.176-10.237-32.176-19.378c0-7.679,6.947-12.798,19.379-12.798
		c12.797,0,25.594,5.851,39.122,14.26l16.819-24.497c-15.356-11.7-34.004-18.647-55.941-18.647
		c-30.714,0-52.652,17.916-52.652,44.973v0.731c0,29.616,19.379,38.026,50.093,45.704c25.594,6.947,30.713,10.97,30.713,18.647
		v0.731c0,8.41-8.409,14.26-21.207,14.26c-16.819,0-31.444-6.947-44.973-17.916l-19.379,23.767
		c17.916,16.088,40.586,23.766,63.62,23.766c32.176,0,55.211-16.819,55.211-46.801v-0.731
		C774.415,1962.712,757.23,1951.743,726.883,1944.064z M811.71,1951.743h66.18v31.444h-66.18V1951.743z M273.861,1883.004
		l-64.353,151.007h34.004l13.529-34.004h63.62l13.528,34.004h34.735l-64.352-151.007
		C304.209,1883.004,273.861,1883.004,273.861,1883.004z M268.742,1971.487l19.379-48.264l19.379,48.264
		C307.865,1971.487,268.742,1971.487,268.742,1971.487z M139.673,1884.1H78.611v150.276h32.907v-44.974h25.595
		c34.004,0,60.33-17.916,60.33-52.651C197.443,1905.307,175.505,1884.1,139.673,1884.1z M163.439,1937.483
		c0,12.797-9.507,23.035-26.326,23.035h-25.595v-46.802h25.595C153.201,1913.717,163.439,1922.127,163.439,1937.483z
		 M580.262,1884.1h32.907v150.276h-32.907V1884.1z M1123.962,1883.004l-64.352,151.007h34.004l13.528-34.004h63.621l13.528,34.004
		h34.735l-64.352-151.007H1123.962L1123.962,1883.004z M1118.844,1971.487l19.378-48.264l19.379,48.264
		C1157.967,1971.487,1118.844,1971.487,1118.844,1971.487z M1454.861,1884.1h-32.906v150.276h107.861v-30.714h-74.589V1884.1
		H1454.861z M1318.845,2006.222c-25.595,0-43.145-21.207-43.145-46.801v-0.731c0-25.595,17.916-46.802,43.145-46.802
		c15.356,0,27.057,6.947,38.025,16.819l21.207-23.767c-13.528-13.528-30.713-23.034-59.232-23.034
		c-45.705,0-77.881,34.735-77.881,77.148c0,43.146,32.908,77.149,77.149,77.149c28.886,0,45.704-10.238,61.062-27.057
		l-21.207-21.207C1347,1999.275,1336.03,2006.222,1318.845,2006.222z M1790.514,1944.064l-35.467-60.329h-39.123l57.771,90.677
		v59.233h32.907v-59.599l57.771-89.946h-37.295L1790.514,1944.064z M983.192,1944.064c-26.325-6.946-32.176-10.237-32.176-19.378
		c0-7.679,6.947-12.798,19.379-12.798s25.595,5.851,39.123,14.26l16.819-24.497c-15.357-11.7-34.004-18.647-55.942-18.647
		c-30.713,0-52.651,17.916-52.651,44.973v0.731c0,29.616,19.379,38.026,50.092,45.704c25.595,6.947,30.714,10.97,30.714,18.647
		v0.731c0,8.41-8.41,14.26-21.207,14.26c-16.819,0-31.444-6.947-44.974-17.916l-19.378,23.767
		c17.916,16.088,40.585,23.766,63.62,23.766c32.176,0,55.211-16.819,55.211-46.801v-0.731
		C1030.725,1962.712,1013.541,1951.743,983.192,1944.064z M1621.957,1883.004l-64.352,151.007h34.004l13.528-34.004h63.62
		l13.529,34.004h34.734l-64.352-151.007C1652.304,1883.004,1621.957,1883.004,1621.957,1883.004z M1616.838,1971.487l19.379-48.264
		l19.379,48.264H1616.838z M636.205,1575.87h41.683v232.544h-41.683V1575.87z M1107.874,1813.533
		c39.123,0,68.739-13.528,95.065-43.145l2.56-2.56l-26.326-23.767l-2.56,2.56c-19.379,21.207-41.682,30.713-68.008,30.713
		c-39.123,0-68.739-27.057-74.59-68.008h177.333v-3.29c0.731-4.389,0.731-7.679,0.731-10.97
		c0-73.858-43.145-122.854-108.594-122.854c-63.62,0-111.152,51.921-111.152,121.392
		C992.334,1761.978,1042.426,1813.533,1107.874,1813.533z M1102.756,1607.315c43.145,0,62.889,34.735,66.91,68.739h-135.65
		C1039.866,1635.469,1068.019,1607.315,1102.756,1607.315z M167.827,1813.533c30.713,0,54.113-11.7,73.127-35.467v30.714h40.585
		v-232.544h-40.951v132.359c0,39.123-26.325,66.18-63.62,66.18c-36.563,0-58.502-23.766-58.502-63.62v-134.919H77.881v143.329
		C77.881,1776.238,113.346,1813.533,167.827,1813.533z M471.67,1571.848c-30.714,0-55.211,11.7-73.127,34.735v-30.714H356.86
		v232.544h41.683v-132.359c0-39.123,26.325-66.18,63.62-66.18c36.563,0,58.501,23.766,58.501,63.62v134.919h40.586v-143.329
		C561.615,1608.412,525.783,1571.848,471.67,1571.848z M866.921,1810.242l100.915-234.006h-44.242l-73.857,179.893l-73.127-179.893
		h-44.974l100.185,234.006H866.921z M1312.995,1622.672v-46.802h-41.683v232.544h41.683v-93.236
		c0-60.33,32.907-99.088,84.827-99.088h6.947v-43.145h-3.291C1364.916,1570.752,1332.74,1589.764,1312.995,1622.672
		L1312.995,1622.672z M1859.254,1499.818l-41.683,23.035v53.383h-43.145v37.295h43.145v131.628
		c0,43.146,23.767,66.911,66.911,66.911c15.357,0,28.886-3.29,42.414-10.237l1.828-0.731v-37.295l-5.85,2.56
		c-10.97,5.119-19.379,7.679-30.714,7.679c-23.035,0-34.004-10.97-34.004-32.907v-127.241h71.299v-37.295h-70.567v-76.783H1859.254z
		 M2078.269,1571.848c-63.621,0-111.153,51.92-111.153,121.391c0,68.739,50.092,121.391,116.272,121.391
		c39.122,0,68.738-13.528,95.064-43.145l2.56-2.56l-26.326-23.767l-2.56,2.56c-19.378,21.207-41.682,30.714-68.008,30.714
		c-39.123,0-68.739-27.058-74.59-68.009h177.334v-3.29c0.73-4.388,0.73-7.679,0.73-10.97
		C2186.863,1620.844,2143.718,1571.848,2078.269,1571.848L2078.269,1571.848z M2009.529,1676.054
		c5.851-40.586,32.908-68.739,68.74-68.739c43.145,0,62.889,34.735,66.91,68.739H2009.529z M1617.569,1741.503v-0.731
		c0-45.704-44.974-59.232-74.59-68.008h-0.731c-28.153-8.409-54.113-16.088-54.113-35.467c0-16.819,16.088-28.885,39.854-28.885
		c20.477,0,43.146,7.678,64.352,21.207l3.291,2.559l19.379-32.176l-3.291-1.828c-23.766-16.088-55.211-25.594-82.999-25.594
		c-47.532,0-80.439,28.153-80.439,68.008v0.731c0,44.973,44.241,57.771,77.149,66.911c29.616,8.409,53.383,16.088,53.383,36.563
		c0,18.647-16.82,31.444-42.414,31.444c-24.498,0-50.823-9.506-75.321-28.154l-3.29-2.559l-21.207,30.713l2.56,2.56
		c25.595,21.207,61.792,34.004,95.065,34.004C1584.662,1812.802,1617.569,1783.917,1617.569,1741.503L1617.569,1741.503z
		 M1683.749,1575.87h41.683v232.544h-41.683V1575.87z"/>
</g>
</svg>
